<svg width="16" height="15" viewBox="0 0 16 15" fill="none" xmlns="http://www.w3.org/2000/svg">
<path d="M8 0C12.1431 0 15.5 3.35685 15.5 7.5C15.5 11.6431 12.1431 15 8 15C3.85685 15 0.5 11.6431 0.5 7.5C0.5 3.35685 3.85685 0 8 0ZM4.49194 8.83064H8V10.9748C8 11.2984 8.39315 11.4617 8.61996 11.2319L12.0766 7.75706C12.2187 7.61492 12.2187 7.3881 12.0766 7.24597L8.61996 3.76815C8.39012 3.53831 8 3.70161 8 4.0252V6.16935H4.49194C4.29234 6.16935 4.12903 6.33266 4.12903 6.53226V8.46774C4.12903 8.66734 4.29234 8.83064 4.49194 8.83064Z" fill="white"/>
</svg>
